name analog
datacolumns 19
datarows 51
range 0.47350000000000003 0.4985
endheader
time	ground_force_vx	ground_force_vy	ground_force_vz	ground_force_px	ground_force_py	ground_force_pz	l_ground_force_vx	l_ground_force_vy	l_ground_force_vz	l_ground_force_px	l_ground_force_py	l_ground_force_pz	ground_torque_x	ground_torque_y	ground_torque_z	l_ground_torque_x	l_ground_torque_y	l_ground_torque_z
0.47350000000000003	-0.0	-0.0	-0.0	-0.0	-0.0	-0.0	-7.4517059326171875	-3.3877174854278564	-880.6849365234375	-0.0	-0.0	-0.0	-0.0	-0.0	-0.0	234141.828125	-1139.8525390625	-3250.117919921875
0.47400000000000003	-0.0	-0.0	-0.0	-0.0	-0.0	-0.0	-6.71046257019043	-2.2963638305664062	-880.4595947265625	-0.0	-0.0	-0.0	-0.0	-0.0	-0.0	234468.484375	-1331.561767578125	-3272.972900390625
0.47450000000000003	-0.0	-0.0	-0.0	-0.0	-0.0	-0.0	-5.734702110290527	-1.299225091934204	-881.35986328125	-0.0	-0.0	-0.0	-0.0	-0.0	-0.0	234480.234375	-1585.06201171875	-3038.73876953125
0.47500000000000003	-0.0	-0.0	-0.0	-0.0	-0.0	-0.0	-4.727510452270508	0.0368701666593551	-880.6841430664062	-0.0	-0.0	-0.0	-0.0	-0.0	-0.0	234348.40625	-1728.38232421875	-2875.867431640625
0.47550000000000003	-0.0	-0.0	-0.0	-0.0	-0.0	-0.0	-3.600322723388672	0.971538543701172	-880.1898803710938	-0.0	-0.0	-0.0	-0.0	-0.0	-0.0	234187.671875	-2086.728515625	-2593.579345703125
0.47600000000000003	-0.0	-0.0	-0.0	-0.0	-0.0	-0.0	-2.5099315643310547	1.8029245138168333	-878.712158203125	-0.0	-0.0	-0.0	-0.0	-0.0	-0.0	234358.0	-2800.172607421875	-2423.29833984375
0.47650000000000003	-0.0	-0.0	-0.0	-0.0	-0.0	-0.0	-1.889106035232544	2.218169689178467	-878.1992797851562	-0.0	-0.0	-0.0	-0.0	-0.0	-0.0	234225.890625	-2961.189697265625	-2293.66552734375
0.47700000000000004	-0.0	-0.0	-0.0	-0.0	-0.0	-0.0	-1.059567093849182	2.675797462463379	-877.9291381835938	-0.0	-0.0	-0.0	-0.0	-0.0	-0.0	234045.109375	-3332.437255859375	-2146.325927734375
0.47750000000000004	-0.0	-0.0	-0.0	-0.0	-0.0	-0.0	-0.6833071708679199	2.7069430351257324	-877.7483520507812	-0.0	-0.0	-0.0	-0.0	-0.0	-0.0	233930.84375	-3893.169677734375	-1936.7818603515625
0.47800000000000004	-0.0	-0.0	-0.0	-0.0	-0.0	-0.0	-0.2661323547363281	3.086717128753662	-876.6332397460938	-0.0	-0.0	-0.0	-0.0	-0.0	-0.0	233856.109375	-4079.399658203125	-1768.8511962890625
0.47850000000000004	-0.0	-0.0	-0.0	-0.0	-0.0	-0.0	-0.0266120843589305	2.3493545055389404	-877.06884765625	-0.0	-0.0	-0.0	-0.0	-0.0	-0.0	233620.234375	-4220.1455078125	-1737.734130859375
0.47900000000000004	-0.0	-0.0	-0.0	-0.0	-0.0	-0.0	1.0602996349334717	2.084664821624756	-874.624755859375	-0.0	-0.0	-0.0	-0.0	-0.0	-0.0	233412.125	-4433.939453125	-1351.4884033203125
0.47950000000000004	-0.0	-0.0	-0.0	-0.0	-0.0	-0.0	1.4731297492980957	1.0371193885803225	-872.9848022460938	-0.0	-0.0	-0.0	-0.0	-0.0	-0.0	232874.859375	-4659.06884765625	-1096.2584228515625
0.48	-0.0	-0.0	-0.0	-0.0	-0.0	-0.0	1.9168486595153809	0.3840261697769165	-871.968505859375	-0.0	-0.0	-0.0	-0.0	-0.0	-0.0	232517.15625	-4811.92822265625	-928.4486694335938
0.4805	-0.0	-0.0	-0.0	-0.0	-0.0	-0.0	2.129058837890625	-0.7642303705215454	-870.4349365234375	-0.0	-0.0	-0.0	-0.0	-0.0	-0.0	231850.625	-5076.03662109375	-828.03955078125
0.481	-0.0	-0.0	-0.0	-0.0	-0.0	-0.0	1.5624715089797974	-2.2963638305664062	-870.1928100585938	-0.0	-0.0	-0.0	-0.0	-0.0	-0.0	231318.234375	-5236.7666015625	-650.8890380859375
0.4815	-0.0	-0.0	-0.0	-0.0	-0.0	-0.0	1.538783311843872	-3.295093536376953	-867.6417236328125	-0.0	-0.0	-0.0	-0.0	-0.0	-0.0	230711.640625	-5357.36865234375	-731.0778198242188
0.482	-0.0	-0.0	-0.0	-0.0	-0.0	-0.0	1.3549585342407229	-4.355103015899658	-864.9940185546875	-0.0	-0.0	-0.0	-0.0	-0.0	-0.0	230067.546875	-5388.23828125	-593.4232788085938
0.4825	-0.0	-0.0	-0.0	-0.0	-0.0	-0.0	0.7983970642089844	-5.238402366638184	-863.451904296875	-0.0	-0.0	-0.0	-0.0	-0.0	-0.0	229537.140625	-5513.64697265625	-612.4641723632812
0.483	-0.0	-0.0	-0.0	-0.0	-0.0	-0.0	0.5904611349105835	-6.005874633789063	-861.0413208007812	-0.0	-0.0	-0.0	-0.0	-0.0	-0.0	229209.078125	-5449.52392578125	-701.8917236328125
0.4835	-0.0	-0.0	-0.0	-0.0	-0.0	-0.0	0.0887107849121093	-6.709819316864014	-860.4190063476562	-0.0	-0.0	-0.0	-0.0	-0.0	-0.0	229088.984375	-5168.32861328125	-763.6068115234375
0.484	-0.0	-0.0	-0.0	-0.0	-0.0	-0.0	-0.415660947561264	-6.563575267791748	-859.481689453125	-0.0	-0.0	-0.0	-0.0	-0.0	-0.0	228688.125	-5159.8203125	-962.2217407226562
0.4845	-0.0	-0.0	-0.0	-0.0	-0.0	-0.0	-0.7983970642089844	-6.033794403076172	-857.387939453125	-0.0	-0.0	-0.0	-0.0	-0.0	-0.0	228766.90625	-5352.732421875	-870.96875
0.485	-0.0	-0.0	-0.0	-0.0	-0.0	-0.0	-0.9194996356964112	-5.178730010986328	-857.746337890625	-0.0	-0.0	-0.0	-0.0	-0.0	-0.0	229072.609375	-5767.931640625	-1030.0869140625
0.4855	-0.0	-0.0	-0.0	-0.0	-0.0	-0.0	-0.8851155042648315	-4.267559051513672	-858.2147216796875	-0.0	-0.0	-0.0	-0.0	-0.0	-0.0	229511.6875	-5687.83203125	-1119.503173828125
0.486	-0.0	-0.0	-0.0	-0.0	-0.0	-0.0	-0.9438918828964232	-3.41627836227417	-858.2077026367188	-0.0	-0.0	-0.0	-0.0	-0.0	-0.0	230297.3125	-6116.80908203125	-1039.189453125
0.4865	-0.0	-0.0	-0.0	-0.0	-0.0	-0.0	-0.3247254490852356	-2.5313432216644287	-860.65869140625	-0.0	-0.0	-0.0	-0.0	-0.0	-0.0	231085.90625	-6642.8447265625	-931.0794067382812
0.487	-0.0	-0.0	-0.0	-0.0	-0.0	-0.0	0.1187591552734375	-1.443063497543335	-860.65869140625	-0.0	-0.0	-0.0	-0.0	-0.0	-0.0	231907.375	-7220.87109375	-938.524169921875
0.4875	-0.0	-0.0	-0.0	-0.0	-0.0	-0.0	1.0920288562774658	-0.3545237779617309	-863.3339233398438	-0.0	-0.0	-0.0	-0.0	-0.0	-0.0	233255.734375	-7786.60546875	-809.853515625
0.488	-0.0	-0.0	-0.0	-0.0	-0.0	-0.0	1.2718942165374756	1.1779937744140625	-865.3199462890625	-0.0	-0.0	-0.0	-0.0	-0.0	-0.0	234647.109375	-8144.8505859375	-779.6998901367188
0.4885	-0.0	-0.0	-0.0	-0.0	-0.0	-0.0	1.6846110820770264	2.5622189044952397	-869.975341796875	-0.0	-0.0	-0.0	-0.0	-0.0	-0.0	235916.453125	-8373.7080078125	-878.0846557617188
0.489	-0.0	-0.0	-0.0	-0.0	-0.0	-0.0	1.832396388053894	3.973759174346924	-873.6974487304688	-0.0	-0.0	-0.0	-0.0	-0.0	-0.0	237316.078125	-8848.892578125	-749.4974365234375
0.4895	-0.0	-0.0	-0.0	-0.0	-0.0	-0.0	1.9516372680664065	5.270255565643311	-876.4853515625	-0.0	-0.0	-0.0	-0.0	-0.0	-0.0	238500.96875	-9015.662109375	-699.6537475585938
0.49	-0.0	-0.0	-0.0	-0.0	-0.0	-0.0	2.365867376327514	5.975943088531494	-877.0703735351562	-0.0	-0.0	-0.0	-0.0	-0.0	-0.0	239385.359375	-9167.41796875	-550.8580322265625
0.4905	-0.0	-0.0	-0.0	-0.0	-0.0	-0.0	2.8980488777160645	5.829718589782715	-879.980712890625	-0.0	-0.0	-0.0	-0.0	-0.0	-0.0	240143.609375	-9330.6748046875	-569.7446899414062
0.491	-0.0	-0.0	-0.0	-0.0	-0.0	-0.0	3.3118815422058105	5.858684062957764	-879.6293334960938	-0.0	-0.0	-0.0	-0.0	-0.0	-0.0	240516.03125	-9502.0947265625	-381.78900146484375
0.4915	-0.0	-0.0	-0.0	-0.0	-0.0	-0.0	3.430356025695801	5.711366653442383	-881.4910278320312	-0.0	-0.0	-0.0	-0.0	-0.0	-0.0	241361.6875	-9301.1787109375	-549.803955078125
0.492	-0.0	-0.0	-0.0	-0.0	-0.0	-0.0	2.9869680404663086	5.0933098793029785	-884.6342163085938	-0.0	-0.0	-0.0	-0.0	-0.0	-0.0	241441.734375	-9111.3564453125	-668.9979248046875
0.4925	-0.0	-0.0	-0.0	-0.0	-0.0	-0.0	2.2471721172332764	3.9749772548675537	-885.9154052734375	-0.0	-0.0	-0.0	-0.0	-0.0	-0.0	241988.90625	-9132.4609375	-788.3209838867188
0.493	-0.0	-0.0	-0.0	-0.0	-0.0	-0.0	1.2425802946090698	3.0321691036224365	-887.7794799804688	-0.0	-0.0	-0.0	-0.0	-0.0	-0.0	242328.25	-9265.705078125	-977.0490112304688
0.4935	-0.0	-0.0	-0.0	-0.0	-0.0	-0.0	-0.0577991604804992	1.5897903442382812	-887.7772827148438	-0.0	-0.0	-0.0	-0.0	-0.0	-0.0	242672.59375	-9472.7197265625	-1265.1236572265625
0.494	-0.0	-0.0	-0.0	-0.0	-0.0	-0.0	-0.2953593730926513	0.7356722950935364	-888.5989379882812	-0.0	-0.0	-0.0	-0.0	-0.0	-0.0	242896.765625	-9445.8662109375	-1315.01416015625
0.4945	-0.0	-0.0	-0.0	-0.0	-0.0	-0.0	-0.6489392518997192	-0.116162784397602	-890.3318481445312	-0.0	-0.0	-0.0	-0.0	-0.0	-0.0	242946.078125	-9349.984375	-1365.439697265625
0.495	-0.0	-0.0	-0.0	-0.0	-0.0	-0.0	-1.1518434286117554	-0.854239821434021	-890.6802978515625	-0.0	-0.0	-0.0	-0.0	-0.0	-0.0	243094.640625	-9298.615234375	-1483.7711181640625
0.4955	-0.0	-0.0	-0.0	-0.0	-0.0	-0.0	-1.9500832557678225	-1.7085840702056885	-891.8598022460938	-0.0	-0.0	-0.0	-0.0	-0.0	-0.0	243297.40625	-9207.90625	-1603.1593017578125
0.496	-0.0	-0.0	-0.0	-0.0	-0.0	-0.0	-2.185401678085327	-1.2925992012023926	-890.9207153320312	-0.0	-0.0	-0.0	-0.0	-0.0	-0.0	243121.328125	-9318.4501953125	-1870.1556396484373
0.4965	-0.0	-0.0	-0.0	-0.0	-0.0	-0.0	-2.5436770915985107	-1.2346084117889404	-890.9210205078125	-0.0	-0.0	-0.0	-0.0	-0.0	-0.0	242742.3125	-9337.013671875	-2078.60546875
0.497	-0.0	-0.0	-0.0	-0.0	-0.0	-0.0	-2.4839019775390625	-1.41314697265625	-889.9793090820312	-0.0	-0.0	-0.0	-0.0	-0.0	-0.0	242490.484375	-9389.27734375	-2088.264404296875
0.4975	-0.0	-0.0	-0.0	-0.0	-0.0	-0.0	-2.306480407714844	-1.062053918838501	-888.0060424804688	-0.0	-0.0	-0.0	-0.0	-0.0	-0.0	242357.609375	-9577.4833984375	-2266.75634765625
0.498	-0.0	-0.0	-0.0	-0.0	-0.0	-0.0	-2.165104389190674	-1.031225562095642	-885.92041015625	-0.0	-0.0	-0.0	-0.0	-0.0	-0.0	242115.421875	-9626.7275390625	-2276.3154296875
0.4985	-0.0	-0.0	-0.0	-0.0	-0.0	-0.0	-1.47938072681427	-0.5870834589004517	-887.091552734375	-0.0	-0.0	-0.0	-0.0	-0.0	-0.0	241802.640625	-10132.4375	-2185.871826171875
